<svg id="Layer_1" enable-background="new 0 0 64 64" height="512" viewBox="0 0 64 64" width="512" xmlns="http://www.w3.org/2000/svg"><circle cx="32" cy="32" fill="#a0ceff" r="24"/><path d="m56 32c0 13.25-10.75 24-24 24-4.23 0-8.21-1.1-11.67-3.04 12.63-.69 22.67-11.16 22.67-23.96 0-9.01-4.97-16.87-12.33-20.96.44-.03.88-.04 1.33-.04 13.25 0 24 10.75 24 24z" fill="#b3d8ff"/><circle cx="41" cy="20" fill="#c6e2ff" r="4"/><path d="m45 20c0 1.71-1.07 3.17-2.59 3.73-.59-2.66-1.62-5.14-3.02-7.38.49-.23 1.04-.35 1.61-.35 2.21 0 4 1.79 4 4z" fill="#accdea"/><path d="m47.73 29.73c-.467-.467-1.101-.73-1.762-.73h-9.936c-.551 0-1.077.191-1.509.523l-2.023-2.023c-.552-.552-.552-1.448 0-2l.086-.086c.265-.265.414-.625.414-1 0-.781-.633-1.414-1.414-1.414-.375 0-.735-.149-1-.414l-.586-.586 2.033-.678c.577-.192.967-.733.967-1.341v-2.566c0-.782-.633-1.415-1.414-1.415h-2.172c-.781 0-1.414-.633-1.414-1.414v-6.248c-7.942 1.333-14.558 6.565-17.816 13.662h5.266c.354 0 .695.133.956.372l5.189 4.757c.261.239.602.372.956.372h5.364c.375 0 .735.149 1 .414l3.585 3.585-.27.27c-.467.467-.73 1.101-.73 1.762v2.436c0 .661.263 1.295.73 1.762l1.577 1.577c.589.589.845 1.434.681 2.251l-1.286 6.43c-.13.648.004 1.321.37 1.871.781 1.171 2.376 1.464 3.522.645l4.159-2.971c.482-.344.825-.849.969-1.423l1.61-6.44c.11-.438.336-.838.655-1.158l1.226-1.226c.189-.189.347-.408.467-.648l2.016-4.032c.48-.959.292-2.118-.466-2.876z" fill="#9bd178"/><path d="m48.2 32.61-2.02 4.03c-.12.24-.28.46-.47.65l-1.22 1.22c-.32.32-.55.72-.66 1.16l-1.61 6.44c-.14.57-.48 1.08-.97 1.42l-4.16 2.97c-1.14.82-2.74.53-3.52-.64-.29-.44-.44-.96-.42-1.49 5.97-4.36 9.85-11.41 9.85-19.37h2.97c.66 0 1.29.26 1.76.73.76.76.95 1.92.47 2.88z" fill="#b3d8ff"/><path d="m48.2 32.61-2.02 4.03c-.12.24-.28.46-.47.65l-1.22 1.22c-.32.32-.55.72-.66 1.16l-1.61 6.44c-.14.57-.48 1.08-.97 1.42l-4.16 2.97c-1.14.82-2.74.53-3.52-.64-.29-.44-.44-.96-.42-1.49 5.97-4.36 9.85-11.41 9.85-19.37h2.97c.66 0 1.29.26 1.76.73.76.76.95 1.92.47 2.88z" fill="#8ec16c"/><path d="m26.879 43.5h-.5c-.563 0-1.102-.224-1.5-.621l-1.257-1.257c-.398-.399-.938-.622-1.501-.622-1.171 0-2.121-.95-2.121-2.121v-1.757c0-1.172-.95-2.122-2.121-2.122h-9.686c.811 6.499 4.217 12.188 9.152 16h6.776c.563 0 1.102-.224 1.5-.621l2.757-2.757c.398-.398.621-.937.621-1.5v-.5c.001-1.172-.949-2.122-2.12-2.122z" fill="#9bd178"/><circle cx="49" cy="24" fill="#6b90b2" r="1"/><circle cx="16" cy="28" fill="#b3d8ff" r="1"/><path d="m10 33c0 9.01 4.97 16.86 12.32 20.95-8.43-3.71-14.32-12.15-14.32-21.95 0-13.25 10.75-24 24-24 4.24 0 8.22 1.1 11.68 3.05-2.96-1.32-6.24-2.05-9.68-2.05-13.25 0-24 10.75-24 24z" fill="#ecf5ff"/></svg>